<svg width="41" height="48" viewBox="0 0 41 48" fill="none" xmlns="http://www.w3.org/2000/svg">
<g clip-path="url(#clip0_1159_35170)">
<path d="M20.8022 33.8926C20.5045 33.8926 20.2068 33.8926 20.0579 33.7426L12.6153 29.2426C12.1688 28.9426 11.8711 28.4926 11.8711 27.8926V18.8926C11.8711 18.2926 12.1688 17.8426 12.6153 17.5426L20.0579 13.0426C20.2068 12.8926 20.5045 12.8926 20.8022 12.8926C21.0999 12.8926 21.3976 12.8926 21.5464 13.0426L28.989 17.5426C29.4355 17.8426 29.7332 18.2926 29.7332 18.8926V27.8926C29.7332 28.4926 29.4355 28.9426 28.989 29.2426L21.5464 33.7426C21.3976 33.8926 21.0999 33.8926 20.8022 33.8926ZM14.1698 27.3419L20.8022 31.5951L27.4345 27.6457V19.3409L20.8022 15.19L14.1698 19.4432V27.3419Z" fill="#202020"/>
<line x1="1.22172" y1="12.7598" x2="1.22172" y2="34.0256" stroke="#202020" stroke-width="2.44344"/>
<line x1="39.8096" y1="21.2656" x2="39.8096" y2="34.0251" stroke="#202020" stroke-width="2.44344"/>
<line y1="-1.22172" x2="21.1438" y2="-1.22172" transform="matrix(-0.864353 0.502886 -0.49712 -0.867682 19.4824 0)" stroke="#202020" stroke-width="2.44344"/>
<line y1="-1.22172" x2="21.1438" y2="-1.22172" transform="matrix(-0.864353 0.502886 -0.49712 -0.867682 38.7773 34.0254)" stroke="#202020" stroke-width="2.44344"/>
<line y1="-1.22172" x2="21.1438" y2="-1.22172" transform="matrix(-0.864353 -0.502886 0.497119 -0.867682 20.6895 44.6582)" stroke="#202020" stroke-width="2.44344"/>
<line y1="-1.22172" x2="21.1438" y2="-1.22172" transform="matrix(-0.864353 -0.502886 0.497119 -0.867682 39.9824 10.6328)" stroke="#202020" stroke-width="2.44344"/>
</g>
<defs>
<clipPath id="clip0_1159_35170">
<rect width="41" height="48" fill="white"/>
</clipPath>
</defs>
</svg>
